<svg width="1910" height="1395" viewBox="0 0 1910 1395" fill="none" xmlns="http://www.w3.org/2000/svg">
<rect width="1910" height="1080" fill="black"/>
<ellipse cx="955.501" cy="1009.5" rx="473.5" ry="290.5" fill="url(#paint0_radial_54_13)"/>
<g filter="url(#filter0_dd_54_13)">
<path d="M1387 645C1626 574.5 1868.5 463.4 1912.5 433V453C1800.5 496.5 1695.5 553.999 1387 645Z" fill="url(#paint1_linear_54_13)"/>
<path d="M1387 645C1626 574.5 1868.5 463.4 1912.5 433V453C1800.5 496.5 1695.5 553.999 1387 645Z" stroke="black"/>
</g>
<g filter="url(#filter1_dd_54_13)">
<path d="M1389 789C1628 859.5 1870.5 970.6 1914.5 1001V981C1802.5 937.5 1697.5 880.001 1389 789Z" fill="url(#paint2_linear_54_13)"/>
<path d="M1389 789C1628 859.5 1870.5 970.6 1914.5 1001V981C1802.5 937.5 1697.5 880.001 1389 789Z" stroke="black"/>
</g>
<g filter="url(#filter2_dd_54_13)">
<path d="M525.501 663C286.501 592.5 44.0013 481.4 0.00134277 451V469.5C105.335 517 328.501 609.5 525.501 663Z" fill="url(#paint3_linear_54_13)"/>
<path d="M525.501 663C286.501 592.5 44.0013 481.4 0.00134277 451V469.5C105.335 517 328.501 609.5 525.501 663Z" stroke="black"/>
</g>
<g filter="url(#filter3_dd_54_13)">
<path d="M522.501 789C283.501 859.5 41.0013 970.6 -2.99866 1001V982.5C102.335 935 325.501 842.5 522.501 789Z" fill="url(#paint4_linear_54_13)"/>
<path d="M522.501 789C283.501 859.5 41.0013 970.6 -2.99866 1001V982.5C102.335 935 325.501 842.5 522.501 789Z" stroke="black"/>
</g>
<g filter="url(#filter4_f_54_13)">
<ellipse cx="955.501" cy="1047" rx="556.5" ry="301" fill="black"/>
</g>
<g filter="url(#filter5_d_54_13)">
<path d="M1700 383.082C1700 551.021 1366.68 713 955.5 713C544.324 713 211 551.021 211 383.082C211 215.142 544.324 79 955.5 79C1366.68 79 1700 215.142 1700 383.082Z" fill="url(#paint5_radial_54_13)"/>
</g>
<g filter="url(#filter6_f_54_13)">
<ellipse cx="955.501" cy="337" rx="895.5" ry="322" fill="black"/>
</g>
<g filter="url(#filter7_ddf_54_13)">
<path d="M702.07 690.963C220.019 734.391 -310.167 692.795 -416.997 663.075L-397.793 703.126C-168.286 719.553 309.517 736.742 702.07 690.963Z" fill="url(#paint6_linear_54_13)"/>
<path d="M702.07 690.963C220.019 734.391 -310.167 692.795 -416.997 663.075L-397.793 703.126C-168.286 719.553 309.517 736.742 702.07 690.963Z" stroke="black"/>
</g>
<g filter="url(#filter8_ddf_54_13)">
<path d="M1069 713.963C1551.05 757.391 2081.24 715.795 2188.07 686.075L2168.86 726.126C1939.36 742.553 1461.55 759.742 1069 713.963Z" fill="url(#paint7_linear_54_13)"/>
<path d="M1069 713.963C1551.05 757.391 2081.24 715.795 2188.07 686.075L2168.86 726.126C1939.36 742.553 1461.55 759.742 1069 713.963Z" stroke="black"/>
</g>
<g filter="url(#filter9_f_54_13)">
<path d="M824.377 -16.052L503.368 709.609L508.002 699.774L893.229 -19L824.377 -16.052Z" fill="#D9D9D9" fill-opacity="0.04"/>
</g>
<g filter="url(#filter10_f_54_13)">
<path d="M1068.85 -38.052L1389.86 687.609L1385.23 677.774L1000 -41L1068.85 -38.052Z" fill="#D9D9D9" fill-opacity="0.04"/>
</g>
<g filter="url(#filter11_f_54_13)">
<circle cx="937.5" cy="641.5" r="190.5" fill="url(#paint8_linear_54_13)"/>
</g>
<g filter="url(#filter12_f_54_13)">
<circle cx="69.5" cy="691.5" r="190.5" fill="url(#paint9_linear_54_13)" fill-opacity="0.42"/>
</g>
<g filter="url(#filter13_f_54_13)">
<circle cx="1870.5" cy="704.5" r="190.5" fill="url(#paint10_linear_54_13)" fill-opacity="0.37"/>
</g>
<rect x="784.929" y="0.642855" width="112.381" height="112.381" stroke="white" stroke-opacity="0.02"/>
<rect x="1465.21" y="0.642855" width="112.381" height="112.381" stroke="white" stroke-opacity="0.02"/>
<rect x="444.786" y="0.642855" width="112.381" height="112.381" stroke="white" stroke-opacity="0.02"/>
<rect x="784.929" y="454.167" width="112.381" height="112.381" stroke="white" stroke-opacity="0.02"/>
<rect x="784.929" y="907.69" width="112.381" height="112.381" stroke="white" stroke-opacity="0.02"/>
<rect x="1465.21" y="454.167" width="112.381" height="112.381" stroke="white" stroke-opacity="0.02"/>
<rect x="444.786" y="454.167" width="112.381" height="112.381" stroke="white" stroke-opacity="0.02"/>
<rect x="1465.21" y="907.69" width="112.381" height="112.381" stroke="white" stroke-opacity="0.02"/>
<rect x="444.786" y="907.69" width="112.381" height="112.381" stroke="white" stroke-opacity="0.02"/>
<rect x="784.929" y="227.405" width="112.381" height="112.381" stroke="white" stroke-opacity="0.02"/>
<rect x="1465.21" y="227.405" width="112.381" height="112.381" stroke="white" stroke-opacity="0.02"/>
<rect x="444.786" y="227.405" width="112.381" height="112.381" stroke="white" stroke-opacity="0.02"/>
<rect x="784.929" y="680.929" width="112.381" height="112.381" stroke="white" stroke-opacity="0.02"/>
<rect x="784.929" y="1134.45" width="112.381" height="112.381" stroke="white" stroke-opacity="0.02"/>
<rect x="1465.21" y="680.929" width="112.381" height="112.381" stroke="white" stroke-opacity="0.02"/>
<rect x="444.786" y="680.929" width="112.381" height="112.381" stroke="white" stroke-opacity="0.02"/>
<rect x="1465.21" y="1134.45" width="112.381" height="112.381" stroke="white" stroke-opacity="0.02"/>
<rect x="444.786" y="1134.45" width="112.381" height="112.381" stroke="white" stroke-opacity="0.02"/>
<rect x="784.929" y="114.024" width="112.381" height="112.381" stroke="white" stroke-opacity="0.02"/>
<rect x="1465.21" y="114.024" width="112.381" height="112.381" stroke="white" stroke-opacity="0.02"/>
<rect x="444.786" y="114.024" width="112.381" height="112.381" stroke="white" stroke-opacity="0.02"/>
<rect x="784.929" y="567.548" width="112.381" height="112.381" stroke="white" stroke-opacity="0.02"/>
<rect x="784.929" y="1021.07" width="112.381" height="112.381" stroke="white" stroke-opacity="0.02"/>
<rect x="1465.21" y="567.548" width="112.381" height="112.381" stroke="white" stroke-opacity="0.02"/>
<rect x="444.786" y="567.548" width="112.381" height="112.381" stroke="white" stroke-opacity="0.02"/>
<rect x="1465.21" y="1021.07" width="112.381" height="112.381" stroke="white" stroke-opacity="0.02"/>
<rect x="444.786" y="1021.07" width="112.381" height="112.381" stroke="white" stroke-opacity="0.02"/>
<rect x="784.929" y="340.786" width="112.381" height="112.381" stroke="white" stroke-opacity="0.02"/>
<rect x="1465.21" y="340.786" width="112.381" height="112.381" stroke="white" stroke-opacity="0.02"/>
<rect x="444.786" y="340.786" width="112.381" height="112.381" stroke="white" stroke-opacity="0.02"/>
<rect x="784.929" y="794.31" width="112.381" height="112.381" stroke="white" stroke-opacity="0.02"/>
<rect x="784.929" y="1247.83" width="112.381" height="112.381" stroke="white" stroke-opacity="0.02"/>
<rect x="1465.21" y="794.31" width="112.381" height="112.381" stroke="white" stroke-opacity="0.02"/>
<rect x="444.286" y="793.81" width="113.381" height="113.381" fill="#D9D9D9" fill-opacity="0.02"/>
<rect x="444.786" y="794.31" width="112.381" height="112.381" stroke="white" stroke-opacity="0.02"/>
<rect x="1465.21" y="1247.83" width="112.381" height="112.381" stroke="white" stroke-opacity="0.02"/>
<rect x="444.786" y="1247.83" width="112.381" height="112.381" stroke="white" stroke-opacity="0.02"/>
<rect x="898.31" y="0.642855" width="112.381" height="112.381" stroke="white" stroke-opacity="0.02"/>
<rect x="1578.6" y="0.642855" width="112.381" height="112.381" stroke="white" stroke-opacity="0.02"/>
<rect x="558.167" y="0.642855" width="112.381" height="112.381" stroke="white" stroke-opacity="0.02"/>
<rect x="898.31" y="454.167" width="112.381" height="112.381" stroke="white" stroke-opacity="0.02"/>
<rect x="898.31" y="907.69" width="112.381" height="112.381" stroke="white" stroke-opacity="0.02"/>
<rect x="1578.6" y="454.167" width="112.381" height="112.381" stroke="white" stroke-opacity="0.02"/>
<rect x="558.167" y="454.167" width="112.381" height="112.381" stroke="white" stroke-opacity="0.02"/>
<rect x="1578.6" y="907.69" width="112.381" height="112.381" stroke="white" stroke-opacity="0.02"/>
<rect x="558.167" y="907.69" width="112.381" height="112.381" stroke="white" stroke-opacity="0.02"/>
<rect x="898.31" y="227.405" width="112.381" height="112.381" stroke="white" stroke-opacity="0.02"/>
<rect x="1578.6" y="227.405" width="112.381" height="112.381" stroke="white" stroke-opacity="0.02"/>
<rect x="558.167" y="227.405" width="112.381" height="112.381" stroke="white" stroke-opacity="0.02"/>
<rect x="898.31" y="680.929" width="112.381" height="112.381" stroke="white" stroke-opacity="0.02"/>
<rect x="898.31" y="1134.45" width="112.381" height="112.381" stroke="white" stroke-opacity="0.02"/>
<rect x="1578.6" y="680.929" width="112.381" height="112.381" stroke="white" stroke-opacity="0.02"/>
<rect x="558.167" y="680.929" width="112.381" height="112.381" stroke="white" stroke-opacity="0.02"/>
<rect x="1578.6" y="1134.45" width="112.381" height="112.381" stroke="white" stroke-opacity="0.02"/>
<rect x="558.167" y="1134.45" width="112.381" height="112.381" stroke="white" stroke-opacity="0.02"/>
<rect x="898.31" y="114.024" width="112.381" height="112.381" stroke="white" stroke-opacity="0.02"/>
<rect x="1578.6" y="114.024" width="112.381" height="112.381" stroke="white" stroke-opacity="0.02"/>
<rect x="558.167" y="114.024" width="112.381" height="112.381" stroke="white" stroke-opacity="0.02"/>
<rect x="898.31" y="567.548" width="112.381" height="112.381" stroke="white" stroke-opacity="0.02"/>
<rect x="898.31" y="1021.07" width="112.381" height="112.381" stroke="white" stroke-opacity="0.02"/>
<rect x="1578.6" y="567.548" width="112.381" height="112.381" stroke="white" stroke-opacity="0.02"/>
<rect x="558.167" y="567.548" width="112.381" height="112.381" stroke="white" stroke-opacity="0.02"/>
<rect x="1578.6" y="1021.07" width="112.381" height="112.381" stroke="white" stroke-opacity="0.02"/>
<rect x="558.167" y="1021.07" width="112.381" height="112.381" stroke="white" stroke-opacity="0.02"/>
<rect x="898.31" y="340.786" width="112.381" height="112.381" stroke="white" stroke-opacity="0.02"/>
<rect x="1578.6" y="340.786" width="112.381" height="112.381" stroke="white" stroke-opacity="0.02"/>
<rect x="558.167" y="340.786" width="112.381" height="112.381" stroke="white" stroke-opacity="0.02"/>
<rect x="898.31" y="794.31" width="112.381" height="112.381" stroke="white" stroke-opacity="0.02"/>
<rect x="898.31" y="1247.83" width="112.381" height="112.381" stroke="white" stroke-opacity="0.02"/>
<rect x="1578.6" y="794.31" width="112.381" height="112.381" stroke="white" stroke-opacity="0.02"/>
<rect x="558.167" y="794.31" width="112.381" height="112.381" stroke="white" stroke-opacity="0.02"/>
<rect x="1578.6" y="1247.83" width="112.381" height="112.381" stroke="white" stroke-opacity="0.02"/>
<rect x="558.167" y="1247.83" width="112.381" height="112.381" stroke="white" stroke-opacity="0.02"/>
<rect x="1011.69" y="0.642855" width="112.381" height="112.381" stroke="white" stroke-opacity="0.02"/>
<rect x="-8.73808" y="0.642855" width="112.381" height="112.381" stroke="white" stroke-opacity="0.02"/>
<rect x="1691.98" y="0.642855" width="112.381" height="112.381" stroke="white" stroke-opacity="0.02"/>
<rect x="671.548" y="0.642855" width="112.381" height="112.381" stroke="white" stroke-opacity="0.02"/>
<rect x="1011.69" y="454.167" width="112.381" height="112.381" stroke="white" stroke-opacity="0.02"/>
<rect x="-8.73808" y="454.167" width="112.381" height="112.381" stroke="white" stroke-opacity="0.02"/>
<rect x="1011.69" y="907.69" width="112.381" height="112.381" stroke="white" stroke-opacity="0.02"/>
<rect x="-8.73808" y="907.69" width="112.381" height="112.381" stroke="white" stroke-opacity="0.02"/>
<rect x="1691.98" y="454.167" width="112.381" height="112.381" stroke="white" stroke-opacity="0.02"/>
<rect x="671.548" y="454.167" width="112.381" height="112.381" stroke="white" stroke-opacity="0.02"/>
<rect x="1691.98" y="907.69" width="112.381" height="112.381" stroke="white" stroke-opacity="0.02"/>
<rect x="671.548" y="907.69" width="112.381" height="112.381" stroke="white" stroke-opacity="0.02"/>
<rect x="1011.69" y="227.405" width="112.381" height="112.381" stroke="white" stroke-opacity="0.02"/>
<rect x="-8.73808" y="227.405" width="112.381" height="112.381" stroke="white" stroke-opacity="0.02"/>
<rect x="1691.48" y="226.905" width="113.381" height="113.381" fill="#D9D9D9" fill-opacity="0.02"/>
<rect x="1691.98" y="227.405" width="112.381" height="112.381" stroke="white" stroke-opacity="0.02"/>
<rect x="671.548" y="227.405" width="112.381" height="112.381" stroke="white" stroke-opacity="0.02"/>
<rect x="1011.69" y="680.929" width="112.381" height="112.381" stroke="white" stroke-opacity="0.02"/>
<rect x="-8.73808" y="680.929" width="112.381" height="112.381" stroke="white" stroke-opacity="0.02"/>
<rect x="1011.69" y="1134.45" width="112.381" height="112.381" stroke="white" stroke-opacity="0.02"/>
<rect x="-8.73808" y="1134.45" width="112.381" height="112.381" stroke="white" stroke-opacity="0.02"/>
<rect x="1691.98" y="680.929" width="112.381" height="112.381" stroke="white" stroke-opacity="0.02"/>
<rect x="671.548" y="680.929" width="112.381" height="112.381" stroke="white" stroke-opacity="0.02"/>
<rect x="1691.98" y="1134.45" width="112.381" height="112.381" stroke="white" stroke-opacity="0.02"/>
<rect x="671.548" y="1134.45" width="112.381" height="112.381" stroke="white" stroke-opacity="0.02"/>
<rect x="1011.69" y="114.024" width="112.381" height="112.381" stroke="white" stroke-opacity="0.02"/>
<rect x="-8.73808" y="114.024" width="112.381" height="112.381" stroke="white" stroke-opacity="0.02"/>
<rect x="1691.98" y="114.024" width="112.381" height="112.381" stroke="white" stroke-opacity="0.02"/>
<rect x="671.548" y="114.024" width="112.381" height="112.381" stroke="white" stroke-opacity="0.02"/>
<rect x="1011.69" y="567.548" width="112.381" height="112.381" stroke="white" stroke-opacity="0.02"/>
<rect x="-8.73808" y="567.548" width="112.381" height="112.381" stroke="white" stroke-opacity="0.02"/>
<rect x="1011.69" y="1021.07" width="112.381" height="112.381" stroke="white" stroke-opacity="0.02"/>
<rect x="-8.73808" y="1021.07" width="112.381" height="112.381" stroke="white" stroke-opacity="0.02"/>
<rect x="1691.98" y="567.548" width="112.381" height="112.381" stroke="white" stroke-opacity="0.02"/>
<rect x="671.548" y="567.548" width="112.381" height="112.381" stroke="white" stroke-opacity="0.02"/>
<rect x="1691.98" y="1021.07" width="112.381" height="112.381" stroke="white" stroke-opacity="0.02"/>
<rect x="671.548" y="1021.07" width="112.381" height="112.381" stroke="white" stroke-opacity="0.02"/>
<rect x="1011.69" y="340.786" width="112.381" height="112.381" stroke="white" stroke-opacity="0.02"/>
<rect x="-8.73808" y="340.786" width="112.381" height="112.381" stroke="white" stroke-opacity="0.02"/>
<rect x="1691.98" y="340.786" width="112.381" height="112.381" stroke="white" stroke-opacity="0.02"/>
<rect x="671.548" y="340.786" width="112.381" height="112.381" stroke="white" stroke-opacity="0.02"/>
<rect x="1011.69" y="794.31" width="112.381" height="112.381" stroke="white" stroke-opacity="0.02"/>
<rect x="-8.73808" y="794.31" width="112.381" height="112.381" stroke="white" stroke-opacity="0.02"/>
<rect x="1011.69" y="1247.83" width="112.381" height="112.381" stroke="white" stroke-opacity="0.02"/>
<rect x="-8.73808" y="1247.83" width="112.381" height="112.381" stroke="white" stroke-opacity="0.02"/>
<rect x="1691.98" y="794.31" width="112.381" height="112.381" stroke="white" stroke-opacity="0.02"/>
<rect x="671.548" y="794.31" width="112.381" height="112.381" stroke="white" stroke-opacity="0.02"/>
<rect x="1691.98" y="1247.83" width="112.381" height="112.381" stroke="white" stroke-opacity="0.02"/>
<rect x="671.548" y="1247.83" width="112.381" height="112.381" stroke="white" stroke-opacity="0.02"/>
<rect x="1125.07" y="0.642855" width="112.381" height="112.381" stroke="white" stroke-opacity="0.02"/>
<rect x="104.643" y="0.642855" width="112.381" height="112.381" stroke="white" stroke-opacity="0.02"/>
<rect x="1805.36" y="0.642855" width="112.381" height="112.381" stroke="white" stroke-opacity="0.02"/>
<rect x="1125.07" y="454.167" width="112.381" height="112.381" stroke="white" stroke-opacity="0.02"/>
<rect x="104.643" y="454.167" width="112.381" height="112.381" stroke="white" stroke-opacity="0.02"/>
<rect x="1125.07" y="907.69" width="112.381" height="112.381" stroke="white" stroke-opacity="0.02"/>
<rect x="104.643" y="907.69" width="112.381" height="112.381" stroke="white" stroke-opacity="0.02"/>
<rect x="1805.36" y="454.167" width="112.381" height="112.381" stroke="white" stroke-opacity="0.02"/>
<rect x="1805.36" y="907.69" width="112.381" height="112.381" stroke="white" stroke-opacity="0.02"/>
<rect x="1125.07" y="227.405" width="112.381" height="112.381" stroke="white" stroke-opacity="0.02"/>
<rect x="104.643" y="227.405" width="112.381" height="112.381" stroke="white" stroke-opacity="0.02"/>
<rect x="1805.36" y="227.405" width="112.381" height="112.381" stroke="white" stroke-opacity="0.02"/>
<rect x="1125.07" y="680.929" width="112.381" height="112.381" stroke="white" stroke-opacity="0.02"/>
<rect x="104.643" y="680.929" width="112.381" height="112.381" stroke="white" stroke-opacity="0.02"/>
<rect x="1125.07" y="1134.45" width="112.381" height="112.381" stroke="white" stroke-opacity="0.02"/>
<rect x="104.643" y="1134.45" width="112.381" height="112.381" stroke="white" stroke-opacity="0.02"/>
<rect x="1805.36" y="680.929" width="112.381" height="112.381" stroke="white" stroke-opacity="0.02"/>
<rect x="1805.36" y="1134.45" width="112.381" height="112.381" stroke="white" stroke-opacity="0.02"/>
<rect x="1125.07" y="114.024" width="112.381" height="112.381" stroke="white" stroke-opacity="0.02"/>
<rect x="104.643" y="114.024" width="112.381" height="112.381" stroke="white" stroke-opacity="0.02"/>
<rect x="1805.36" y="114.024" width="112.381" height="112.381" stroke="white" stroke-opacity="0.02"/>
<rect x="1125.07" y="567.548" width="112.381" height="112.381" stroke="white" stroke-opacity="0.02"/>
<rect x="104.143" y="567.048" width="113.381" height="113.381" fill="#D9D9D9" fill-opacity="0.03"/>
<rect x="104.643" y="567.548" width="112.381" height="112.381" stroke="white" stroke-opacity="0.02"/>
<rect x="1125.07" y="1021.07" width="112.381" height="112.381" stroke="white" stroke-opacity="0.02"/>
<rect x="104.643" y="1021.07" width="112.381" height="112.381" stroke="white" stroke-opacity="0.02"/>
<rect x="1805.36" y="567.548" width="112.381" height="112.381" stroke="white" stroke-opacity="0.02"/>
<rect x="1805.36" y="1021.07" width="112.381" height="112.381" stroke="white" stroke-opacity="0.02"/>
<rect x="1125.07" y="340.786" width="112.381" height="112.381" stroke="white" stroke-opacity="0.02"/>
<rect x="104.643" y="340.786" width="112.381" height="112.381" stroke="white" stroke-opacity="0.02"/>
<rect x="1804.86" y="340.286" width="113.381" height="113.381" fill="#D9D9D9" fill-opacity="0.02"/>
<rect x="1805.36" y="340.786" width="112.381" height="112.381" stroke="white" stroke-opacity="0.02"/>
<rect x="1125.07" y="794.31" width="112.381" height="112.381" stroke="white" stroke-opacity="0.02"/>
<rect x="104.643" y="794.31" width="112.381" height="112.381" stroke="white" stroke-opacity="0.02"/>
<rect x="1125.07" y="1247.83" width="112.381" height="112.381" stroke="white" stroke-opacity="0.02"/>
<rect x="104.643" y="1247.83" width="112.381" height="112.381" stroke="white" stroke-opacity="0.02"/>
<rect x="1805.36" y="794.31" width="112.381" height="112.381" stroke="white" stroke-opacity="0.02"/>
<rect x="1805.36" y="1247.83" width="112.381" height="112.381" stroke="white" stroke-opacity="0.02"/>
<rect x="1238.45" y="0.642855" width="112.381" height="112.381" stroke="white" stroke-opacity="0.02"/>
<rect x="218.024" y="0.642855" width="112.381" height="112.381" stroke="white" stroke-opacity="0.02"/>
<rect x="1238.45" y="454.167" width="112.381" height="112.381" stroke="white" stroke-opacity="0.02"/>
<rect x="218.024" y="454.167" width="112.381" height="112.381" stroke="white" stroke-opacity="0.02"/>
<rect x="1237.95" y="907.19" width="113.381" height="113.381" fill="#D9D9D9" fill-opacity="0.03"/>
<rect x="1238.45" y="907.69" width="112.381" height="112.381" stroke="white" stroke-opacity="0.02"/>
<rect x="218.024" y="907.69" width="112.381" height="112.381" stroke="white" stroke-opacity="0.02"/>
<rect x="1238.45" y="227.405" width="112.381" height="112.381" stroke="white" stroke-opacity="0.02"/>
<rect x="218.024" y="227.405" width="112.381" height="112.381" stroke="white" stroke-opacity="0.02"/>
<rect x="1238.45" y="680.929" width="112.381" height="112.381" stroke="white" stroke-opacity="0.02"/>
<rect x="217.524" y="680.429" width="113.381" height="113.381" fill="#D9D9D9" fill-opacity="0.02"/>
<rect x="218.024" y="680.929" width="112.381" height="112.381" stroke="white" stroke-opacity="0.02"/>
<rect x="1238.45" y="1134.45" width="112.381" height="112.381" stroke="white" stroke-opacity="0.02"/>
<rect x="218.024" y="1134.45" width="112.381" height="112.381" stroke="white" stroke-opacity="0.02"/>
<rect x="1237.95" y="113.524" width="113.381" height="113.381" fill="#D9D9D9" fill-opacity="0.03"/>
<rect x="1238.45" y="114.024" width="112.381" height="112.381" stroke="white" stroke-opacity="0.02"/>
<rect x="218.024" y="114.024" width="112.381" height="112.381" stroke="white" stroke-opacity="0.02"/>
<rect x="1238.45" y="567.548" width="112.381" height="112.381" stroke="white" stroke-opacity="0.02"/>
<rect x="218.024" y="567.548" width="112.381" height="112.381" stroke="white" stroke-opacity="0.02"/>
<rect x="1238.45" y="1021.07" width="112.381" height="112.381" stroke="white" stroke-opacity="0.02"/>
<rect x="218.024" y="1021.07" width="112.381" height="112.381" stroke="white" stroke-opacity="0.02"/>
<rect x="1238.45" y="340.786" width="112.381" height="112.381" stroke="white" stroke-opacity="0.02"/>
<rect x="218.024" y="340.786" width="112.381" height="112.381" stroke="white" stroke-opacity="0.02"/>
<rect x="1238.45" y="794.31" width="112.381" height="112.381" stroke="white" stroke-opacity="0.02"/>
<rect x="218.024" y="794.31" width="112.381" height="112.381" stroke="white" stroke-opacity="0.02"/>
<rect x="1238.45" y="1247.83" width="112.381" height="112.381" stroke="white" stroke-opacity="0.02"/>
<rect x="218.024" y="1247.83" width="112.381" height="112.381" stroke="white" stroke-opacity="0.02"/>
<rect x="1351.83" y="0.642855" width="112.381" height="112.381" stroke="white" stroke-opacity="0.02"/>
<rect x="331.405" y="0.642855" width="112.381" height="112.381" stroke="white" stroke-opacity="0.02"/>
<rect x="1351.83" y="454.167" width="112.381" height="112.381" stroke="white" stroke-opacity="0.02"/>
<rect x="331.405" y="454.167" width="112.381" height="112.381" stroke="white" stroke-opacity="0.02"/>
<rect x="1351.83" y="907.69" width="112.381" height="112.381" stroke="white" stroke-opacity="0.02"/>
<rect x="331.405" y="907.69" width="112.381" height="112.381" stroke="white" stroke-opacity="0.02"/>
<rect x="1351.83" y="227.405" width="112.381" height="112.381" stroke="white" stroke-opacity="0.02"/>
<rect x="331.405" y="227.405" width="112.381" height="112.381" stroke="white" stroke-opacity="0.02"/>
<rect x="1351.83" y="680.929" width="112.381" height="112.381" stroke="white" stroke-opacity="0.02"/>
<rect x="331.405" y="680.929" width="112.381" height="112.381" stroke="white" stroke-opacity="0.02"/>
<rect x="1351.83" y="1134.45" width="112.381" height="112.381" stroke="white" stroke-opacity="0.02"/>
<rect x="331.405" y="1134.45" width="112.381" height="112.381" stroke="white" stroke-opacity="0.02"/>
<rect x="1351.83" y="114.024" width="112.381" height="112.381" stroke="white" stroke-opacity="0.02"/>
<rect x="330.905" y="113.524" width="113.381" height="113.381" fill="#D9D9D9" fill-opacity="0.02"/>
<rect x="331.405" y="114.024" width="112.381" height="112.381" stroke="white" stroke-opacity="0.02"/>
<rect x="1351.83" y="567.548" width="112.381" height="112.381" stroke="white" stroke-opacity="0.02"/>
<rect x="331.405" y="567.548" width="112.381" height="112.381" stroke="white" stroke-opacity="0.02"/>
<rect x="1351.83" y="1021.07" width="112.381" height="112.381" stroke="white" stroke-opacity="0.02"/>
<rect x="331.405" y="1021.07" width="112.381" height="112.381" stroke="white" stroke-opacity="0.02"/>
<rect x="1351.83" y="340.786" width="112.381" height="112.381" stroke="white" stroke-opacity="0.02"/>
<rect x="331.405" y="340.786" width="112.381" height="112.381" stroke="white" stroke-opacity="0.02"/>
<rect x="1351.83" y="794.31" width="112.381" height="112.381" stroke="white" stroke-opacity="0.02"/>
<rect x="331.405" y="794.31" width="112.381" height="112.381" stroke="white" stroke-opacity="0.02"/>
<rect x="1351.83" y="1247.83" width="112.381" height="112.381" stroke="white" stroke-opacity="0.02"/>
<rect x="331.405" y="1247.83" width="112.381" height="112.381" stroke="white" stroke-opacity="0.02"/>
<defs>
<filter id="filter0_dd_54_13" x="1333.66" y="387.847" width="632.541" height="319.833" filterUnits="userSpaceOnUse" color-interpolation-filters="sRGB">
<feFlood flood-opacity="0" result="BackgroundImageFix"/>
<feColorMatrix in="SourceAlpha" type="matrix" values="0 0 0 0 0 0 0 0 0 0 0 0 0 0 0 0 0 0 127 0" result="hardAlpha"/>
<feOffset dy="4"/>
<feGaussianBlur stdDeviation="2"/>
<feComposite in2="hardAlpha" operator="out"/>
<feColorMatrix type="matrix" values="0 0 0 0 0 0 0 0 0 0 0 0 0 0 0 0 0 0 0.25 0"/>
<feBlend mode="normal" in2="BackgroundImageFix" result="effect1_dropShadow_54_13"/>
<feColorMatrix in="SourceAlpha" type="matrix" values="0 0 0 0 0 0 0 0 0 0 0 0 0 0 0 0 0 0 127 0" result="hardAlpha"/>
<feOffset dy="9"/>
<feGaussianBlur stdDeviation="26.6"/>
<feComposite in2="hardAlpha" operator="out"/>
<feColorMatrix type="matrix" values="0 0 0 0 0.917647 0 0 0 0 0.447059 0 0 0 0 0.00392157 0 0 0 0.76 0"/>
<feBlend mode="normal" in2="effect1_dropShadow_54_13" result="effect2_dropShadow_54_13"/>
<feBlend mode="normal" in="SourceGraphic" in2="effect2_dropShadow_54_13" result="shape"/>
</filter>
<filter id="filter1_dd_54_13" x="1335.66" y="744.32" width="632.541" height="319.833" filterUnits="userSpaceOnUse" color-interpolation-filters="sRGB">
<feFlood flood-opacity="0" result="BackgroundImageFix"/>
<feColorMatrix in="SourceAlpha" type="matrix" values="0 0 0 0 0 0 0 0 0 0 0 0 0 0 0 0 0 0 127 0" result="hardAlpha"/>
<feOffset dy="4"/>
<feGaussianBlur stdDeviation="2"/>
<feComposite in2="hardAlpha" operator="out"/>
<feColorMatrix type="matrix" values="0 0 0 0 0 0 0 0 0 0 0 0 0 0 0 0 0 0 0.25 0"/>
<feBlend mode="normal" in2="BackgroundImageFix" result="effect1_dropShadow_54_13"/>
<feColorMatrix in="SourceAlpha" type="matrix" values="0 0 0 0 0 0 0 0 0 0 0 0 0 0 0 0 0 0 127 0" result="hardAlpha"/>
<feOffset dy="9"/>
<feGaussianBlur stdDeviation="26.6"/>
<feComposite in2="hardAlpha" operator="out"/>
<feColorMatrix type="matrix" values="0 0 0 0 0.917647 0 0 0 0 0.447059 0 0 0 0 0.00392157 0 0 0 0.76 0"/>
<feBlend mode="normal" in2="effect1_dropShadow_54_13" result="effect2_dropShadow_54_13"/>
<feBlend mode="normal" in="SourceGraphic" in2="effect2_dropShadow_54_13" result="shape"/>
</filter>
<filter id="filter2_dd_54_13" x="-53.6987" y="405.847" width="632.541" height="319.836" filterUnits="userSpaceOnUse" color-interpolation-filters="sRGB">
<feFlood flood-opacity="0" result="BackgroundImageFix"/>
<feColorMatrix in="SourceAlpha" type="matrix" values="0 0 0 0 0 0 0 0 0 0 0 0 0 0 0 0 0 0 127 0" result="hardAlpha"/>
<feOffset dy="4"/>
<feGaussianBlur stdDeviation="2"/>
<feComposite in2="hardAlpha" operator="out"/>
<feColorMatrix type="matrix" values="0 0 0 0 0 0 0 0 0 0 0 0 0 0 0 0 0 0 0.25 0"/>
<feBlend mode="normal" in2="BackgroundImageFix" result="effect1_dropShadow_54_13"/>
<feColorMatrix in="SourceAlpha" type="matrix" values="0 0 0 0 0 0 0 0 0 0 0 0 0 0 0 0 0 0 127 0" result="hardAlpha"/>
<feOffset dy="9"/>
<feGaussianBlur stdDeviation="26.6"/>
<feComposite in2="hardAlpha" operator="out"/>
<feColorMatrix type="matrix" values="0 0 0 0 0.917647 0 0 0 0 0.447059 0 0 0 0 0.00392157 0 0 0 0.76 0"/>
<feBlend mode="normal" in2="effect1_dropShadow_54_13" result="effect2_dropShadow_54_13"/>
<feBlend mode="normal" in="SourceGraphic" in2="effect2_dropShadow_54_13" result="shape"/>
</filter>
<filter id="filter3_dd_54_13" x="-56.6987" y="744.317" width="632.541" height="319.836" filterUnits="userSpaceOnUse" color-interpolation-filters="sRGB">
<feFlood flood-opacity="0" result="BackgroundImageFix"/>
<feColorMatrix in="SourceAlpha" type="matrix" values="0 0 0 0 0 0 0 0 0 0 0 0 0 0 0 0 0 0 127 0" result="hardAlpha"/>
<feOffset dy="4"/>
<feGaussianBlur stdDeviation="2"/>
<feComposite in2="hardAlpha" operator="out"/>
<feColorMatrix type="matrix" values="0 0 0 0 0 0 0 0 0 0 0 0 0 0 0 0 0 0 0.25 0"/>
<feBlend mode="normal" in2="BackgroundImageFix" result="effect1_dropShadow_54_13"/>
<feColorMatrix in="SourceAlpha" type="matrix" values="0 0 0 0 0 0 0 0 0 0 0 0 0 0 0 0 0 0 127 0" result="hardAlpha"/>
<feOffset dy="9"/>
<feGaussianBlur stdDeviation="26.6"/>
<feComposite in2="hardAlpha" operator="out"/>
<feColorMatrix type="matrix" values="0 0 0 0 0.917647 0 0 0 0 0.447059 0 0 0 0 0.00392157 0 0 0 0.76 0"/>
<feBlend mode="normal" in2="effect1_dropShadow_54_13" result="effect2_dropShadow_54_13"/>
<feBlend mode="normal" in="SourceGraphic" in2="effect2_dropShadow_54_13" result="shape"/>
</filter>
<filter id="filter4_f_54_13" x="357.201" y="704.2" width="1196.6" height="685.6" filterUnits="userSpaceOnUse" color-interpolation-filters="sRGB">
<feFlood flood-opacity="0" result="BackgroundImageFix"/>
<feBlend mode="normal" in="SourceGraphic" in2="BackgroundImageFix" result="shape"/>
<feGaussianBlur stdDeviation="20.9" result="effect1_foregroundBlur_54_13"/>
</filter>
<filter id="filter5_d_54_13" x="168.8" y="46.8" width="1573.4" height="718.4" filterUnits="userSpaceOnUse" color-interpolation-filters="sRGB">
<feFlood flood-opacity="0" result="BackgroundImageFix"/>
<feColorMatrix in="SourceAlpha" type="matrix" values="0 0 0 0 0 0 0 0 0 0 0 0 0 0 0 0 0 0 127 0" result="hardAlpha"/>
<feOffset dy="10"/>
<feGaussianBlur stdDeviation="21.1"/>
<feComposite in2="hardAlpha" operator="out"/>
<feColorMatrix type="matrix" values="0 0 0 0 1 0 0 0 0 0.744965 0 0 0 0 0.504808 0 0 0 0.4 0"/>
<feBlend mode="normal" in2="BackgroundImageFix" result="effect1_dropShadow_54_13"/>
<feBlend mode="normal" in="SourceGraphic" in2="effect1_dropShadow_54_13" result="shape"/>
</filter>
<filter id="filter6_f_54_13" x="1.50089" y="-43.5" width="1908" height="761" filterUnits="userSpaceOnUse" color-interpolation-filters="sRGB">
<feFlood flood-opacity="0" result="BackgroundImageFix"/>
<feBlend mode="normal" in="SourceGraphic" in2="BackgroundImageFix" result="shape"/>
<feGaussianBlur stdDeviation="29.25" result="effect1_foregroundBlur_54_13"/>
</filter>
<filter id="filter7_ddf_54_13" x="-645.725" y="434.498" width="1575.65" height="514.211" filterUnits="userSpaceOnUse" color-interpolation-filters="sRGB">
<feFlood flood-opacity="0" result="BackgroundImageFix"/>
<feColorMatrix in="SourceAlpha" type="matrix" values="0 0 0 0 0 0 0 0 0 0 0 0 0 0 0 0 0 0 127 0" result="hardAlpha"/>
<feOffset dy="4"/>
<feGaussianBlur stdDeviation="2"/>
<feComposite in2="hardAlpha" operator="out"/>
<feColorMatrix type="matrix" values="0 0 0 0 0 0 0 0 0 0 0 0 0 0 0 0 0 0 0.25 0"/>
<feBlend mode="normal" in2="BackgroundImageFix" result="effect1_dropShadow_54_13"/>
<feColorMatrix in="SourceAlpha" type="matrix" values="0 0 0 0 0 0 0 0 0 0 0 0 0 0 0 0 0 0 127 0" result="hardAlpha"/>
<feOffset dy="9"/>
<feGaussianBlur stdDeviation="26.6"/>
<feComposite in2="hardAlpha" operator="out"/>
<feColorMatrix type="matrix" values="0 0 0 0 0.917647 0 0 0 0 0.447059 0 0 0 0 0.00392157 0 0 0 0.76 0"/>
<feBlend mode="normal" in2="effect1_dropShadow_54_13" result="effect2_dropShadow_54_13"/>
<feBlend mode="normal" in="SourceGraphic" in2="effect2_dropShadow_54_13" result="shape"/>
<feGaussianBlur stdDeviation="113.9" result="effect3_foregroundBlur_54_13"/>
</filter>
<filter id="filter8_ddf_54_13" x="841.143" y="457.498" width="1575.65" height="514.211" filterUnits="userSpaceOnUse" color-interpolation-filters="sRGB">
<feFlood flood-opacity="0" result="BackgroundImageFix"/>
<feColorMatrix in="SourceAlpha" type="matrix" values="0 0 0 0 0 0 0 0 0 0 0 0 0 0 0 0 0 0 127 0" result="hardAlpha"/>
<feOffset dy="4"/>
<feGaussianBlur stdDeviation="2"/>
<feComposite in2="hardAlpha" operator="out"/>
<feColorMatrix type="matrix" values="0 0 0 0 0 0 0 0 0 0 0 0 0 0 0 0 0 0 0.25 0"/>
<feBlend mode="normal" in2="BackgroundImageFix" result="effect1_dropShadow_54_13"/>
<feColorMatrix in="SourceAlpha" type="matrix" values="0 0 0 0 0 0 0 0 0 0 0 0 0 0 0 0 0 0 127 0" result="hardAlpha"/>
<feOffset dy="9"/>
<feGaussianBlur stdDeviation="26.6"/>
<feComposite in2="hardAlpha" operator="out"/>
<feColorMatrix type="matrix" values="0 0 0 0 0.917647 0 0 0 0 0.447059 0 0 0 0 0.00392157 0 0 0 0.76 0"/>
<feBlend mode="normal" in2="effect1_dropShadow_54_13" result="effect2_dropShadow_54_13"/>
<feBlend mode="normal" in="SourceGraphic" in2="effect2_dropShadow_54_13" result="shape"/>
<feGaussianBlur stdDeviation="113.9" result="effect3_foregroundBlur_54_13"/>
</filter>
<filter id="filter9_f_54_13" x="406.968" y="-115.4" width="582.661" height="921.41" filterUnits="userSpaceOnUse" color-interpolation-filters="sRGB">
<feFlood flood-opacity="0" result="BackgroundImageFix"/>
<feBlend mode="normal" in="SourceGraphic" in2="BackgroundImageFix" result="shape"/>
<feGaussianBlur stdDeviation="48.2" result="effect1_foregroundBlur_54_13"/>
</filter>
<filter id="filter10_f_54_13" x="903.6" y="-137.4" width="582.661" height="921.41" filterUnits="userSpaceOnUse" color-interpolation-filters="sRGB">
<feFlood flood-opacity="0" result="BackgroundImageFix"/>
<feBlend mode="normal" in="SourceGraphic" in2="BackgroundImageFix" result="shape"/>
<feGaussianBlur stdDeviation="48.2" result="effect1_foregroundBlur_54_13"/>
</filter>
<filter id="filter11_f_54_13" x="247" y="-49" width="1381" height="1381" filterUnits="userSpaceOnUse" color-interpolation-filters="sRGB">
<feFlood flood-opacity="0" result="BackgroundImageFix"/>
<feBlend mode="normal" in="SourceGraphic" in2="BackgroundImageFix" result="shape"/>
<feGaussianBlur stdDeviation="250" result="effect1_foregroundBlur_54_13"/>
</filter>
<filter id="filter12_f_54_13" x="-621" y="1" width="1381" height="1381" filterUnits="userSpaceOnUse" color-interpolation-filters="sRGB">
<feFlood flood-opacity="0" result="BackgroundImageFix"/>
<feBlend mode="normal" in="SourceGraphic" in2="BackgroundImageFix" result="shape"/>
<feGaussianBlur stdDeviation="250" result="effect1_foregroundBlur_54_13"/>
</filter>
<filter id="filter13_f_54_13" x="1180" y="14" width="1381" height="1381" filterUnits="userSpaceOnUse" color-interpolation-filters="sRGB">
<feFlood flood-opacity="0" result="BackgroundImageFix"/>
<feBlend mode="normal" in="SourceGraphic" in2="BackgroundImageFix" result="shape"/>
<feGaussianBlur stdDeviation="250" result="effect1_foregroundBlur_54_13"/>
</filter>
<radialGradient id="paint0_radial_54_13" cx="0" cy="0" r="1" gradientUnits="userSpaceOnUse" gradientTransform="translate(956.001 954) rotate(-90) scale(253 592.317)">
<stop offset="0.535523" stop-color="#1C0700"/>
<stop offset="0.623644" stop-color="#992800"/>
<stop offset="0.740933" stop-color="#B32F00"/>
<stop offset="0.778714" stop-color="#D85901"/>
<stop offset="0.871121" stop-color="#EA7201"/>
<stop offset="0.891709" stop-color="#FFAC36"/>
<stop offset="0.946166" stop-color="#F7F4D3"/>
</radialGradient>
<linearGradient id="paint1_linear_54_13" x1="1941.5" y1="376" x2="1245" y2="671" gradientUnits="userSpaceOnUse">
<stop offset="0.0686951" stop-color="#F7F4D3"/>
<stop offset="0.298392" stop-color="#EA7201"/>
<stop offset="0.482654" stop-color="#992800"/>
<stop offset="0.662847" stop-color="#1C0700"/>
<stop offset="1"/>
</linearGradient>
<linearGradient id="paint2_linear_54_13" x1="1943.5" y1="1058" x2="1247" y2="763" gradientUnits="userSpaceOnUse">
<stop offset="0.0686951" stop-color="#F7F4D3"/>
<stop offset="0.298392" stop-color="#EA7201"/>
<stop offset="0.482654" stop-color="#992800"/>
<stop offset="0.662847" stop-color="#1C0700"/>
<stop offset="1"/>
</linearGradient>
<linearGradient id="paint3_linear_54_13" x1="-28.9986" y1="394" x2="667.501" y2="689" gradientUnits="userSpaceOnUse">
<stop offset="0.0686951" stop-color="#F7F4D3"/>
<stop offset="0.298392" stop-color="#EA7201"/>
<stop offset="0.482654" stop-color="#992800"/>
<stop offset="0.662847" stop-color="#1C0700"/>
<stop offset="1"/>
</linearGradient>
<linearGradient id="paint4_linear_54_13" x1="-31.9986" y1="1058" x2="664.501" y2="763" gradientUnits="userSpaceOnUse">
<stop offset="0.0686951" stop-color="#F7F4D3"/>
<stop offset="0.298392" stop-color="#EA7201"/>
<stop offset="0.482654" stop-color="#992800"/>
<stop offset="0.662847" stop-color="#1C0700"/>
<stop offset="1"/>
</linearGradient>
<radialGradient id="paint5_radial_54_13" cx="0" cy="0" r="1" gradientUnits="userSpaceOnUse" gradientTransform="translate(955.5 382.088) rotate(-90) scale(332.403 816.683)">
<stop offset="0.605769" stop-color="#1C0700"/>
<stop offset="0.763245" stop-color="#992800"/>
<stop offset="0.867574" stop-color="#D85901"/>
<stop offset="1" stop-color="#F7F4D3"/>
</radialGradient>
<linearGradient id="paint6_linear_54_13" x1="-525.78" y1="563.463" x2="940.747" y2="380.451" gradientUnits="userSpaceOnUse">
<stop offset="0.0686951" stop-color="#F7F4D3"/>
<stop offset="0.298392" stop-color="#EA7201"/>
<stop offset="0.482654" stop-color="#992800"/>
<stop offset="0.662847" stop-color="#1C0700"/>
<stop offset="1"/>
</linearGradient>
<linearGradient id="paint7_linear_54_13" x1="2296.85" y1="586.463" x2="830.324" y2="403.451" gradientUnits="userSpaceOnUse">
<stop offset="0.0686951" stop-color="#F7F4D3"/>
<stop offset="0.298392" stop-color="#EA7201"/>
<stop offset="0.482654" stop-color="#992800"/>
<stop offset="0.662847" stop-color="#1C0700"/>
<stop offset="1"/>
</linearGradient>
<linearGradient id="paint8_linear_54_13" x1="937.5" y1="451" x2="937.5" y2="832" gradientUnits="userSpaceOnUse">
<stop stop-color="#B32F00"/>
<stop offset="1" stop-color="#FFAC36"/>
</linearGradient>
<linearGradient id="paint9_linear_54_13" x1="69.5" y1="501" x2="69.5" y2="882" gradientUnits="userSpaceOnUse">
<stop stop-color="#B32F00"/>
<stop offset="1" stop-color="#FFAC36"/>
</linearGradient>
<linearGradient id="paint10_linear_54_13" x1="1870.5" y1="514" x2="1870.5" y2="895" gradientUnits="userSpaceOnUse">
<stop stop-color="#B32F00"/>
<stop offset="1" stop-color="#FFAC36"/>
</linearGradient>
</defs>
</svg>
